# xmcd
#
# Track frame offsets: 
#        160
#        14805
#        29345
#        42710
#        54860
#        72912
#        87310
#        103287
#        116862
#        134367
#        158300
#        173995
#
# Disc length: 2549 seconds
#
# Revision: 0
# Processed by: cddbd v1.5.2PL0 Copyright (c) Steve Scherf et al.
# Submitted via: ExactAudioCopy v0.99pb4
#
DISCID=a709f30c
DTITLE=Игорь Малинин - Урок ботаники
DYEAR=1997
DGENRE=Chanson
TTITLE0=Штирлиц
TTITLE1=Чапаев
TTITLE2=Дала ты маху
TTITLE3=Кочумай
TTITLE4=Лафа
TTITLE5=Лютики
TTITLE6=Цветочки
TTITLE7=Ржевский
TTITLE8=Перескоп
TTITLE9=Детский сад
TTITLE10=Егор Кузьмич
TTITLE11=Механизатор
EXTD=
EXTT0=
EXTT1=
EXTT2=
EXTT3=
EXTT4=
EXTT5=
EXTT6=
EXTT7=
EXTT8=
EXTT9=
EXTT10=
EXTT11=
PLAYORDER=
